<?xml version="1.0" encoding="UTF-8" standalone="no"?>
<!DOCTYPE svg PUBLIC "-//W3C//DTD SVG 1.1//EN" "http://www.w3.org/Graphics/SVG/1.1/DTD/svg11.dtd">
<svg width="100%" height="100%" viewBox="0 0 178 118" version="1.1" xmlns="http://www.w3.org/2000/svg" xmlns:xlink="http://www.w3.org/1999/xlink" xml:space="preserve" xmlns:serif="http://www.serif.com/" style="fill-rule:evenodd;clip-rule:evenodd;stroke-linejoin:round;stroke-miterlimit:2;">
    <g id="_0" serif:id="0" transform="matrix(-1,0.000834,-0.000834,-1,60.953183,104.048732)">
        <g transform="matrix(-2.240412,-0.001869,0.002072,-2.483806,259.423906,250.160207)">
            <path d="M167.836,61.102L167.836,103.639C167.836,104.943 166.662,106.002 165.216,106.002L91.3,106.002C89.854,106.002 88.68,104.943 88.68,103.639L88.68,61.102C88.68,59.797 89.854,58.738 91.3,58.738L165.216,58.738C166.662,58.738 167.836,59.797 167.836,61.102Z"/>
            <path d="M167.836,61.102L167.836,103.639C167.836,104.943 166.662,106.002 165.216,106.002L91.3,106.002C89.854,106.002 88.68,104.943 88.68,103.639L88.68,61.102C88.68,59.797 89.854,58.738 91.3,58.738L165.216,58.738C166.662,58.738 167.836,59.797 167.836,61.102ZM91.655,61.422L91.655,103.318L164.86,103.318L164.86,61.422L91.655,61.422Z"/>
        </g>
        <g id="LWPOLYLINE" transform="matrix(1,0,0,1,-0.008538,-1.91064)">
            <path d="M51.378,94.488L51.378,0L33.661,0L33.661,35.433L10.039,35.433L10.039,53.15L33.661,53.15L33.661,76.772L4.134,76.772L4.134,94.488L51.378,94.488Z" style="fill:rgb(229,230,28);"/>
        </g>
        <g id="LWPOLYLINE1" serif:id="LWPOLYLINE" transform="matrix(1,0,0,1,-0.008538,-1.91064)">
            <path d="M-33.661,47.244L-21.85,47.244L-21.85,64.961L-36.024,64.961L-36.024,76.772L-21.85,76.772L-21.85,70.866L-4.134,70.866L-4.134,94.488L-51.378,94.488L-51.378,75.189L-45.472,64.961L-51.378,64.961L-51.378,-0L-4.134,0L-4.134,35.433L-21.85,35.433L-21.85,17.717L-33.661,17.717L-33.661,47.244ZM-14.767,77.949L-14.767,83.855L-43.107,83.855L-43.107,75.03L-44.295,77.087L-44.295,87.405L-11.217,87.405L-11.217,77.949L-14.767,77.949ZM-33.204,57.877L-28.934,57.877L-28.934,54.327L-40.745,54.327L-40.745,10.633L-14.767,10.633L-14.767,28.35L-11.217,28.35L-11.217,7.083L-44.295,7.083L-44.295,57.877L-33.204,57.877Z" style="fill:rgb(13,202,242);"/>
        </g>
        <g id="LWPOLYLINE2" serif:id="LWPOLYLINE" transform="matrix(1,0,0,1,-0.008538,-1.91064)">
            <path d="M-59.646,94.488L-95.079,94.488L-106.89,74.031L-106.89,20.457L-95.079,-0L-59.646,-0L-59.646,94.488ZM-66.729,87.405L-66.729,7.083L-90.989,7.083L-99.806,22.355L-99.806,72.133L-90.989,87.405L-66.729,87.405ZM-70.279,83.855L-89.719,83.855L-96.257,72.532L-96.257,21.956L-89.719,10.633L-70.279,10.633L-70.279,83.855ZM-77.362,17.717L-85.63,17.717L-89.173,23.854L-89.173,70.634L-85.63,76.772L-77.362,76.772L-77.362,17.717Z" style="fill:rgb(13,202,242);"/>
        </g>
    </g>
</svg>
