<?xml version="1.0" encoding="UTF-8" standalone="no"?>
<!DOCTYPE svg PUBLIC "-//W3C//DTD SVG 1.1//EN" "http://www.w3.org/Graphics/SVG/1.1/DTD/svg11.dtd">
<svg width="100%" height="100%" viewBox="0 0 32 32" version="1.1" xmlns="http://www.w3.org/2000/svg" xmlns:xlink="http://www.w3.org/1999/xlink" xml:space="preserve" xmlns:serif="http://www.serif.com/" style="fill-rule:evenodd;clip-rule:evenodd;stroke-linejoin:round;stroke-miterlimit:2;">
    <g transform="matrix(1.050085,0,0,1.050085,-1.61386,-1.511153)">
        <path d="M31.276,10.443L31.276,23.288C31.276,26.832 28.398,29.71 24.854,29.71L8.694,29.71C5.149,29.71 2.272,26.832 2.272,23.288L2.272,10.443C2.272,6.899 5.149,4.021 8.694,4.021L24.854,4.021C28.398,4.021 31.276,6.899 31.276,10.443Z"/>
    </g>
    <g transform="matrix(2.404595,0,0,2.488251,-16.74564,4.297932)">
        <g transform="matrix(11.031429,0,0,11.031429,18.806567,9.170156)">
        </g>
        <text x="8.735px" y="9.17px" style="font-family:'CNRGNNormalRegular', 'CNRGN Normal';font-size:11.031px;fill:rgb(68,78,232);">3D</text>
    </g>
    <g transform="matrix(2.404595,0,0,2.488251,-17.49901,3.544564)">
        <g transform="matrix(11.031429,0,0,11.031429,18.806567,9.170156)">
        </g>
        <text x="8.735px" y="9.17px" style="font-family:'CNRGNNormalRegular', 'CNRGN Normal';font-size:11.031px;fill:rgb(84,225,255);">3D</text>
    </g>
</svg>
